<svg width="23" height="24" viewBox="0 0 23 24" fill="none" xmlns="http://www.w3.org/2000/svg">
<path d="M11.7692 3.40381L12.3096 6.68451C12.7929 9.61877 15.0927 11.9186 18.0269 12.4019L21.3076 12.9423L18.0269 13.4827C15.0927 13.966 12.7929 16.2658 12.3096 19.2L11.7692 22.4807L11.2288 19.2C10.7455 16.2658 8.44568 13.966 5.51141 13.4827L2.23071 12.9423L5.51141 12.4019C8.44568 11.9186 10.7455 9.61877 11.2288 6.68451L11.7692 3.40381Z" fill="url(#paint0_linear_130_7204)"/>
<path d="M11.7692 3.40381L12.3096 6.68451C12.7929 9.61877 15.0927 11.9186 18.0269 12.4019L21.3076 12.9423L18.0269 13.4827C15.0927 13.966 12.7929 16.2658 12.3096 19.2L11.7692 22.4807L11.2288 19.2C10.7455 16.2658 8.44568 13.966 5.51141 13.4827L2.23071 12.9423L5.51141 12.4019C8.44568 11.9186 10.7455 9.61877 11.2288 6.68451L11.7692 3.40381Z" fill="url(#paint1_linear_130_7204)"/>
<path d="M18.5386 1.51904L18.7652 2.89482C18.9679 4.12532 19.9323 5.08975 21.1628 5.29243L22.5386 5.51904L21.1628 5.74565C19.9323 5.94834 18.9679 6.91277 18.7652 8.14326L18.5386 9.51904L18.312 8.14326C18.1093 6.91277 17.1448 5.94834 15.9144 5.74565L14.5386 5.51904L15.9144 5.29243C17.1448 5.08975 18.1093 4.12532 18.312 2.89482L18.5386 1.51904Z" fill="url(#paint2_linear_130_7204)"/>
<path d="M18.5386 1.51904L18.7652 2.89482C18.9679 4.12532 19.9323 5.08975 21.1628 5.29243L22.5386 5.51904L21.1628 5.74565C19.9323 5.94834 18.9679 6.91277 18.7652 8.14326L18.5386 9.51904L18.312 8.14326C18.1093 6.91277 17.1448 5.94834 15.9144 5.74565L14.5386 5.51904L15.9144 5.29243C17.1448 5.08975 18.1093 4.12532 18.312 2.89482L18.5386 1.51904Z" fill="url(#paint3_linear_130_7204)"/>
<defs>
<linearGradient id="paint0_linear_130_7204" x1="20.9787" y1="3.40381" x2="1.91354" y2="21.8116" gradientUnits="userSpaceOnUse">
<stop stop-color="white"/>
<stop offset="1" stop-color="white"/>
</linearGradient>
<linearGradient id="paint1_linear_130_7204" x1="18.9444" y1="20.2851" x2="1.98801" y2="3.99894" gradientUnits="userSpaceOnUse">
<stop stop-color="#581C87"/>
<stop offset="1" stop-color="white"/>
</linearGradient>
<linearGradient id="paint2_linear_130_7204" x1="22.4006" y1="1.51904" x2="14.4056" y2="9.23843" gradientUnits="userSpaceOnUse">
<stop stop-color="white"/>
<stop offset="1" stop-color="white"/>
</linearGradient>
<linearGradient id="paint3_linear_130_7204" x1="21.5475" y1="8.59828" x2="14.4368" y2="1.76862" gradientUnits="userSpaceOnUse">
<stop stop-color="#581C87"/>
<stop offset="1" stop-color="white"/>
</linearGradient>
</defs>
</svg>
